<svg width="600" height="400" xmlns="http://www.w3.org/2000/svg">
<rect width="100%" height="100%" fill="white"/>
<text x="300.0" y="30" text-anchor="middle" font-family="Arial" font-size="20">Speedup vs Threads</text>
<line x1="60" y1="340" x2="540" y2="340" stroke="black" stroke-width="2"/>
<line x1="60" y1="60" x2="60" y2="340" stroke="black" stroke-width="2"/>
<polyline points="60.0,322.5 92.0,305.0 156.0,270.0 284.0,200.0 540.0,60.0" fill="none" stroke="gray" stroke-width="1" stroke-dasharray="5,5"/>
<text x="540.0" y="55.0" font-family="Arial" font-size="12" fill="gray">Ideal</text>
<circle cx="60.0" cy="322.5" r="4" fill="blue"/>
<text x="60.0" y="312.5" text-anchor="middle" font-family="Arial" font-size="12" fill="blue">1.00</text>
<circle cx="92.0" cy="308.29714855604044" r="4" fill="blue"/>
<text x="92.0" y="298.29714855604044" text-anchor="middle" font-family="Arial" font-size="12" fill="blue">1.81</text>
<circle cx="156.0" cy="308.65429157269006" r="4" fill="blue"/>
<text x="156.0" y="298.65429157269006" text-anchor="middle" font-family="Arial" font-size="12" fill="blue">1.79</text>
<circle cx="284.0" cy="308.65897632736875" r="4" fill="blue"/>
<text x="284.0" y="298.65897632736875" text-anchor="middle" font-family="Arial" font-size="12" fill="blue">1.79</text>
<circle cx="540.0" cy="308.29650949884547" r="4" fill="blue"/>
<text x="540.0" y="298.29650949884547" text-anchor="middle" font-family="Arial" font-size="12" fill="blue">1.81</text>
<polyline points="60.0,322.5 92.0,308.29714855604044 156.0,308.65429157269006 284.0,308.65897632736875 540.0,308.29650949884547" fill="none" stroke="blue" stroke-width="2"/>
<text x="300.0" y="390" text-anchor="middle" font-family="Arial" font-size="14">Number of Threads</text>
<text x="20" y="200.0" text-anchor="middle" font-family="Arial" font-size="14" transform="rotate(-90 20,200.0)">Speedup</text>
<text x="60.0" y="360" text-anchor="middle" font-family="Arial" font-size="12">1</text>
<text x="92.0" y="360" text-anchor="middle" font-family="Arial" font-size="12">2</text>
<text x="156.0" y="360" text-anchor="middle" font-family="Arial" font-size="12">4</text>
<text x="284.0" y="360" text-anchor="middle" font-family="Arial" font-size="12">8</text>
<text x="540.0" y="360" text-anchor="middle" font-family="Arial" font-size="12">16</text>
</svg>